# Blender 5.1.2
# www.blender.org
o boat_mask
v 1.272605 0.762089 1.149722
v 1.391206 0.769836 -0.054761
v 0.581199 0.752285 2.471586
v -1.060893 0.623902 -2.229695
v 0.000584 -0.431193 -1.884297
v 0.000699 0.635244 -2.217686
v 0.560313 0.632803 2.483268
v 1.095618 -0.442048 -0.051737
v 0.819907 -0.436983 1.110684
v -0.000056 0.616985 2.998578
v -0.923149 0.634399 1.942397
v -1.238693 0.632991 -1.281319
v -1.095618 -0.442047 -0.051735
v -1.200369 -0.421226 -1.185979
v 0.998618 -0.455107 -1.863585
v 1.094384 0.757578 -2.194031
v 1.285260 0.761716 -1.232457
v -1.094384 0.757578 -2.194031
v 0.000000 0.751000 -2.182437
v -1.234044 0.633491 1.161252
v -1.337475 0.630698 -0.078769
v 1.233295 0.630806 1.163262
v 0.000000 0.404339 -2.368165
v 1.474775 0.407762 -1.239629
v 1.251003 0.402647 -2.358255
v 1.107137 0.404287 2.102854
v 1.529974 0.407537 1.210038
v 1.152260 0.403582 2.212181
v 1.573990 0.411816 -0.054817
v 1.464383 0.408327 1.161094
v 0.000000 0.400349 3.226683
v -0.788967 0.401803 2.739178
v -0.742630 0.402344 2.629045
v -1.573990 0.411816 -0.054817
v -1.474775 0.407762 -1.239628
v -0.560425 0.632803 2.483263
v -0.000000 -0.433764 2.331772
v -0.362358 -0.444613 1.988799
v -1.464383 0.408327 1.161095
v 0.657363 -0.423948 1.675365
v -1.251003 0.402647 -2.358255
v 0.000000 -0.438829 1.486745
v -0.657362 -0.423948 1.675367
v 0.000000 -0.438762 1.963868
v 1.200344 -0.421301 -1.185538
v -0.000000 -0.438830 -0.804873
v 0.000000 -0.438829 0.340947
v -0.819924 -0.436973 1.110682
v -0.986399 -0.452370 -1.878443
v 0.000000 0.399864 3.375732
v 0.788966 0.401803 2.739180
v 0.000000 0.403657 -2.481156
v 1.642947 0.410888 -0.060263
v -1.107140 0.404287 2.102846
v -1.540483 0.406964 -1.297903
v -1.308841 0.402047 -2.470371
v -1.642947 0.410888 -0.060263
v 1.540483 0.406964 -1.297903
v 1.308841 0.402047 -2.470371
v 0.742629 0.402344 2.629046
v 0.932464 0.755170 1.965517
v -1.529975 0.407537 1.210038
v -1.152265 0.403582 2.212170
v 0.362359 -0.444613 1.988799
v 1.386764 0.095467 0.244687
v -1.386764 0.095467 0.244687
v -1.266918 0.094485 1.086781
v 1.266918 0.094485 1.086781
v 1.258100 0.093827 -1.436983
v -1.258100 0.093827 -1.436983
v 1.381107 0.286308 -0.521232
v -1.382063 0.142158 -0.530572
v 1.381468 0.104078 -0.568362
v -1.381107 0.286308 -0.521232
v 1.337380 0.630707 -0.075762
v 1.072985 0.620272 -2.221940
v 0.923116 0.634449 1.942111
v 1.238765 0.633119 -1.279603
s 0
f 4 6 5
f 36 77 11
f 12 14 13
f 6 78 76
f 20 21 13
f 36 38 37
f 22 8 75
f 42 44 43
f 5 15 45
f 5 46 14
f 9 42 47
f 8 47 46
f 47 42 48
f 46 47 13
f 12 78 6
f 64 40 77
f 12 4 49
f 7 10 37
f 42 9 40
f 11 20 48
f 38 36 11
f 78 45 15
f 38 43 44
f 64 37 44
f 78 75 8
f 4 5 49
f 77 40 9
f 6 76 15
f 12 13 21
f 6 15 5
f 20 13 48
f 22 9 8
f 42 43 48
f 5 45 46
f 5 14 49
f 9 47 8
f 8 46 45
f 47 48 13
f 46 13 14
f 12 49 14
f 42 40 44
f 11 48 43
f 38 11 43
f 38 44 37
f 64 44 40
f 36 37 10
f 77 9 22
f 78 8 45
f 78 15 76
f 12 6 4
f 10 7 36
f 7 37 64
f 7 77 36
f 11 77 22
f 11 22 20
f 20 22 75
f 64 77 7
f 20 75 21
f 21 75 78
f 21 78 12
