<svg xmlns="http://www.w3.org/2000/svg" xmlns:xlink="http://www.w3.org/1999/xlink" viewBox="0 0 290.27 288.48"><defs><style>.a{opacity:0.11;}.a,.e{filter:url(#a);}.b{fill:#b43873;}.c{fill:#453256;}.d{filter:url(#b);}.e{opacity:0.2;}.f{fill:#fbdeeb;}.g{opacity:0.25;}.h{fill:#f7cfd3;}.i{fill:#7e4377;}.j{opacity:0.1;filter:url(#e);}.k{fill:#f2f2f2;}</style><filter id="a" name="AI_GaussianBlur_7"><feGaussianBlur stdDeviation="7"/></filter><filter id="b" name="AI_GaussianBlur_4"><feGaussianBlur stdDeviation="4"/></filter><filter id="e" width="100" height="100" name="AI_Turbulence_3"><feTurbulence result="turb" baseFrequency="0.05" numOctaves="8"/><feComposite operator="in" in="turb" in2="SourceAlpha"/></filter></defs><title>Stem Cell_V2</title><g class="a"><path class="b" d="M508.78,531.34c-23.09-.32-23.09-5.92-53.89-16.11-14.84-4.91-32.84-21.67-44.72-32.8-3-2.79-5.55-5.2-7.89-7.28-2.94-2.61-12-9.82-19-28.06s-10.91-37-10.91-51.43a140.16,140.16,0,0,1,12.18-56.36c12.26-28,24.27-28.75,41.08-42.32,2.15-1.73,4.36-3.52,6.66-5.41,24.8-20.4,46.37-32,76.14-32,2.81,0,5.48-.07,8.06-.13,2.33-.06,4.54-.11,6.64-.11a51.67,51.67,0,0,1,9.15.64c25,4.48,56.3,14.91,76.17,33.5,25.67,24,34.21,62.11,34.21,102.16,0,26.25-4.16,43.33-15.91,65.28-16,29.95-26,27.26-50,41.06l-.61.35c-21.5,12.37-40.93,29-65.81,29Z" transform="translate(-362.82 -248.09)"/></g><path class="c" d="M514.35,436.15c-6.56,1.25-21.41-1.45-21.41-1.45-2.06-.2-16.72-5.13-24.74-16.18-3.76-5.17-7.37-11.29-7.39-18.68,0-12.45-1.45-9.14,3.1-21.2a52.76,52.76,0,0,1,21-25.41c14.54-9.38,29.42-10.74,38.14-9.91,15.06,1.43,25.3,11.47,31.24,19.65,6.13,8.44,9.3,18.65,8.34,28.16-1.49,14.8-11.72,24.26-11.75,24.31a49,49,0,0,1-18.51,14.46C527.52,432.16,522.41,434.62,514.35,436.15Z" transform="translate(-362.82 -248.09)"/><g class="d"><path class="b" d="M532,419.12a38.81,38.81,0,0,1-4.86,2.65c-7.17,3.29-10.68,4.76-12.19,5.37-5.18-.12-15.35-.92-22-1.53-3.42-1.21-12.47-5.32-17.36-12-2.83-3.89-5.72-8.41-5.73-12.42,0-2.87,0-5.09-.08-6.88,0-1.06,0-2.23,0-2.94.31-.88.93-2.49,1.53-4.06.51-1.33,1.1-2.87,1.79-4.7l.32-.88a38.85,38.85,0,0,1,15.61-20c14-9,27.19-8.59,30.9-8.23,11.06,1,19.58,10.66,23.68,16.3,5.12,7,7.76,15.44,7.05,22.44A29.2,29.2,0,0,1,543,408.58L541.56,410l-1.2,1.55A33.1,33.1,0,0,1,532,419.12Z" transform="translate(-362.82 -248.09)"/></g><g class="d"><path class="c" d="M555.25,366.45a27.11,27.11,0,0,1,4.91,10.32,39.79,39.79,0,0,1,1,11.54,47.62,47.62,0,0,1-7.1,22.11A47.1,47.1,0,0,1,537,426.62,52.66,52.66,0,0,1,514.13,433,47.26,47.26,0,0,1,490.71,428a40.06,40.06,0,0,1-17.46-16.81,36.8,36.8,0,0,1-2.45-5.71,32.06,32.06,0,0,1-1.38-6.16,33.3,33.3,0,0,1,.93-12.49,39.09,39.09,0,0,1,13.59-20.29,43.91,43.91,0,0,1,10.6-6.16,36,36,0,0,1,12.11-2.75,32.7,32.7,0,0,1,12.4,1.77,28.26,28.26,0,0,1,10.75,6.69,25.76,25.76,0,0,1,6.51,11,21.82,21.82,0,0,1-.44,12.92,25.41,25.41,0,0,1-7,10.55,28.54,28.54,0,0,1-10.84,6.15,22.36,22.36,0,0,1-12.61.12,18.11,18.11,0,0,1-10.27-7.46,15.54,15.54,0,0,1-2.35-6.08,14.22,14.22,0,0,1,.6-6.5,16.84,16.84,0,0,1,8.08-9.39,16.5,16.5,0,0,1,5.93-1.9,13.72,13.72,0,0,1,6.21.73,11.56,11.56,0,0,1,5.09,3.64,9,9,0,0,1-.08,11.6,10.88,10.88,0,0,1-4.88,3.39,8.54,8.54,0,0,1-5.83,0,6.46,6.46,0,0,1-3.93-4,6.22,6.22,0,0,0,4.08,3.55,7.81,7.81,0,0,0,5.33-.41,9.85,9.85,0,0,0,4.14-3.33,7.83,7.83,0,0,0,1.49-4.86,7.69,7.69,0,0,0-2-4.54,9.25,9.25,0,0,0-4.23-2.66,11.08,11.08,0,0,0-5-.3,14.3,14.3,0,0,0-10.88,9.6,10.4,10.4,0,0,0-.23,4.77,11.54,11.54,0,0,0,1.95,4.38,14.15,14.15,0,0,0,8,5.33,17.54,17.54,0,0,0,9.87-.43,22.06,22.06,0,0,0,13.95-13.69,16,16,0,0,0,.16-9.53,19.82,19.82,0,0,0-5.15-8.3A24.88,24.88,0,0,0,507,364a29.59,29.59,0,0,0-10,2.35,37.48,37.48,0,0,0-9,5.31,33.18,33.18,0,0,0-11.47,16.89,27,27,0,0,0-.83,10.1,25.77,25.77,0,0,0,1.08,4.95,30.66,30.66,0,0,0,2,4.77,34.15,34.15,0,0,0,14.61,14.57A43.22,43.22,0,0,0,514,427.71a48.29,48.29,0,0,0,20.9-5.06,43.45,43.45,0,0,0,16.36-14.09,46,46,0,0,0,8-20.44,38.3,38.3,0,0,0-.09-11.15A26.77,26.77,0,0,0,555.25,366.45Z" transform="translate(-362.82 -248.09)"/></g><g class="e"><path class="f" d="M520,402.16a21.53,21.53,0,0,1-2.82,2.5c-4.33,3.22-6.48,4.69-7.42,5.31-3.79.47-11.38,1-16.39,1.22-2.8-.54-10.46-2.63-15.78-7.11-3.08-2.6-6.38-5.66-7.45-8.64s-2-5.26-2.59-6.84c-.24-.62-.54-1.35-.69-1.76-.08-1.13,0-4.25,0-6.18A25,25,0,0,1,473.56,364a30.67,30.67,0,0,1,20.24-9.44c8.3-.4,17,5.85,21.5,9.61,5.58,4.7,9.72,10.67,11.06,16a19.12,19.12,0,0,1-1.18,13l-.67,1.18-.46,1.29A18.54,18.54,0,0,1,520,402.16Z" transform="translate(-362.82 -248.09)"/></g><g class="g"><path class="h" d="M363,395.63c0,34.76,27.82,80,40.95,91.69,11.52,10.25,29.13,29,50.67,36.15,31.29,10.35,29.43,11.28,53.78,11.62,29.2.41,51.08-13.11,72.4-25.38,23.23-13.37,36.66-11.56,54.28-44.48,13.32-24.88,17-44.39,17-69.61,0-41.9-5.34-82.45-33.69-109-20-18.75-56.37-30.7-84.52-35.74-8.38-1.5-16.69-.68-25.5-.68-31.57,0-53.14,10.69-79.95,32.75-19.63,16.15-37.74,18.83-52.55,52.7A149.24,149.24,0,0,0,363,395.63Z" transform="translate(-362.82 -248.09)"/><path class="i" d="M363.18,395.63a96.61,96.61,0,0,0,4.75,27.71,165,165,0,0,0,10.79,26,189.11,189.11,0,0,0,14.62,24.06,98.63,98.63,0,0,0,8.87,10.83l1.23,1.22,1.27,1.16,2.66,2.35,5.25,4.74a204.75,204.75,0,0,0,21.8,17.68,97.47,97.47,0,0,0,12,7,68.55,68.55,0,0,0,6.35,2.73c2.14.78,4.41,1.5,6.65,2.24,4.48,1.47,8.95,3,13.39,4.53a122.76,122.76,0,0,0,13.37,4A79.37,79.37,0,0,0,500,533.39q3.51.13,7,.19c2.36.06,4.65,0,7,0a94.76,94.76,0,0,0,27.29-5.26,168.25,168.25,0,0,0,25.54-11.64c4.13-2.24,8.23-4.57,12.33-6.88s8.34-4.5,12.62-6.5,8.6-3.88,12.76-6a60.58,60.58,0,0,0,11.67-7.67,62.36,62.36,0,0,0,9.5-10.26,107,107,0,0,0,7.54-11.86,157.06,157.06,0,0,0,11.49-25.67,108.87,108.87,0,0,0,3.65-13.57,125.4,125.4,0,0,0,2.06-13.89c.43-4.67.65-9.35.72-14s0-9.4-.17-14.1a278,278,0,0,0-2.13-28.07,167.61,167.61,0,0,0-5.78-27.41,106.21,106.21,0,0,0-11.41-25.34,85.63,85.63,0,0,0-18.19-20.77,118.08,118.08,0,0,0-23.75-14.44,203.18,203.18,0,0,0-26.15-10,257.93,257.93,0,0,0-27.21-6.81c-2.33-.44-4.54-.86-6.81-1.06s-4.57-.31-6.89-.32c-4.64,0-9.35.23-14.12.22A108.41,108.41,0,0,0,481,255.35a105,105,0,0,0-25.63,10.56,184.72,184.72,0,0,0-23.08,15.86c-1.83,1.45-3.65,2.95-5.57,4.4s-3.85,2.81-5.82,4.14c-3.94,2.65-8,5.1-11.92,7.65a106.93,106.93,0,0,0-11.32,8.23,70,70,0,0,0-9.66,10c-5.78,7.34-10.09,15.76-13.67,24.44a148.27,148.27,0,0,0-8.28,26.92A143.61,143.61,0,0,0,363.18,395.63Zm-.36,0a152.43,152.43,0,0,1,10.62-55.33c3.4-8.8,7.54-17.44,13.28-25.08a73.06,73.06,0,0,1,9.66-10.54A109.05,109.05,0,0,1,407.7,296c3.91-2.67,7.87-5.22,11.68-7.93q2.86-2,5.61-4.18c1.82-1.42,3.61-2.95,5.46-4.45a187.85,187.85,0,0,1,23.24-16.49,101.08,101.08,0,0,1,40.54-13.81,128.66,128.66,0,0,1,14.32-.82c4.65,0,9.36-.25,14.15-.22,2.39,0,4.81.11,7.23.35s4.85.68,7.16,1.12a244,244,0,0,1,27.6,7,206.78,206.78,0,0,1,26.56,10.36,121.47,121.47,0,0,1,24.36,15,88.55,88.55,0,0,1,18.76,21.7,109.25,109.25,0,0,1,11.46,26.19,163.85,163.85,0,0,1,5.54,27.93,280.26,280.26,0,0,1,1.68,28.33c.06,4.73.05,9.44-.05,14.18s-.43,9.46-.93,14.18a127.39,127.39,0,0,1-6.13,27.71A158.22,158.22,0,0,1,634.22,468a108.15,108.15,0,0,1-7.68,11.94,63.48,63.48,0,0,1-9.59,10.52,61.81,61.81,0,0,1-11.85,7.91c-4.2,2.21-8.52,4.11-12.76,6.15s-8.39,4.21-12.42,6.62-8.11,4.8-12.23,7.13a169.4,169.4,0,0,1-25.64,12.27,97.41,97.41,0,0,1-27.94,5.91c-2.38.13-4.81.15-7.16.11s-4.73-.08-7.1-.15a82.34,82.34,0,0,1-14.31-1.47,125.48,125.48,0,0,1-13.74-4l-13.39-4.54c-2.23-.76-4.45-1.47-6.73-2.32a71.63,71.63,0,0,1-6.61-2.89,93.47,93.47,0,0,1-12.29-7.39,189.09,189.09,0,0,1-21.71-18.38l-5.12-4.87-2.58-2.4-1.31-1.25-1.25-1.3A101.21,101.21,0,0,1,392,474.36a190.35,190.35,0,0,1-14.17-24.56,178.47,178.47,0,0,1-10.41-26.32C364.76,414.45,362.84,405.1,362.82,395.63Z" transform="translate(-362.82 -248.09)"/></g><g class="j"><path class="k" d="M363,395.63c0,34.76,27.82,80,40.95,91.69,11.52,10.25,29.13,29,50.67,36.15,31.29,10.35,29.43,11.28,53.78,11.62,29.2.41,51.08-13.11,72.4-25.38,23.23-13.37,36.66-11.56,54.28-44.48,13.32-24.88,17-44.39,17-69.61,0-41.9-5.34-82.45-33.69-109-20-18.75-56.37-30.7-84.52-35.74-8.38-1.5-16.69-.68-25.5-.68-31.57,0-53.14,10.69-79.95,32.75-19.63,16.15-37.74,18.83-52.55,52.7A149.24,149.24,0,0,0,363,395.63Z" transform="translate(-362.82 -248.09)"/></g></svg>